<?xml version="1.0" encoding="UTF-8"?>
<svg version="1.1" xmlns="http://www.w3.org/2000/svg" width="793" height="287">
<path d="M0 0 C0.99 0 1.98 0 3 0 C3 0.66 3 1.32 3 2 C3.763125 1.814375 4.52625 1.62875 5.3125 1.4375 C8 1 8 1 11 2 C11 2.66 11 3.32 11 4 C11.5775 3.79375 12.155 3.5875 12.75 3.375 C15.55436855 2.90760524 16.65386819 3.46287916 19 5 C19.33 5.66 19.66 6.32 20 7 C21.66392251 7.34677194 23.33119605 7.67753718 25 8 C26.79608112 8.79971495 28.56816512 9.65544586 30.3125 10.5625 C31.19550781 11.01753906 32.07851562 11.47257812 32.98828125 11.94140625 C33.65214844 12.29074219 34.31601563 12.64007813 35 13 C35 13.66 35 14.32 35 15 C36.65 15.33 38.3 15.66 40 16 C40 16.66 40 17.32 40 18 C40.7425 18.2475 41.485 18.495 42.25 18.75 C45.23023087 20.10465039 46.89919252 21.5101541 49 24 C49 24.66 49 25.32 49 26 C49.66 26 50.32 26 51 26 C51 26.66 51 27.32 51 28 C51.66 28 52.32 28 53 28 C54.7265625 29.64453125 54.7265625 29.64453125 56.625 31.8125 C57.25664062 32.52019531 57.88828125 33.22789063 58.5390625 33.95703125 C60 36 60 36 60 39 C60.66 39 61.32 39 62 39 C62 39.66 62 40.32 62 41 C62.66 41 63.32 41 64 41 C64.33 41.99 64.66 42.98 65 44 C65.66 44.66 66.32 45.32 67 46 C67.625 48.625 67.625 48.625 68 51 C68.66 51 69.32 51 70 51 C70 52.32 70 53.64 70 55 C70.66 55.33 71.32 55.66 72 56 C73.88186002 59.0318856 74 60.24517355 74 64 C74.66 64.33 75.32 64.66 76 65 C78.22522523 71.32432432 78.22522523 71.32432432 77 75 C77.66 75 78.32 75 79 75 C79.06058594 75.71027344 79.12117188 76.42054687 79.18359375 77.15234375 C79.30927734 78.53099609 79.30927734 78.53099609 79.4375 79.9375 C79.51871094 80.85402344 79.59992188 81.77054687 79.68359375 82.71484375 C79.76044976 84.96159732 79.76044976 84.96159732 81 86 C81.09982396 87.86764985 81.13080757 89.73906038 81.1328125 91.609375 C81.13410156 92.75664062 81.13539063 93.90390625 81.13671875 95.0859375 C81.13285156 96.29507813 81.12898438 97.50421875 81.125 98.75 C81.12886719 99.94367188 81.13273437 101.13734375 81.13671875 102.3671875 C81.13478516 104.09582031 81.13478516 104.09582031 81.1328125 105.859375 C81.13168457 106.91608398 81.13055664 107.97279297 81.12939453 109.06152344 C81.00767153 111.82578397 80.62226965 114.30959889 80 117 C79.835 117.76441406 79.67 118.52882813 79.5 119.31640625 C79.335 120.05761719 79.17 120.79882812 79 121.5625 C78.835 122.30628906 78.67 123.05007812 78.5 123.81640625 C78.02634268 125.88495658 77.52234558 127.94326429 77 130 C76.34 130 75.68 130 75 130 C75.309375 130.8971875 75.309375 130.8971875 75.625 131.8125 C76 134 76 134 74 137 C73.29835358 138.98799818 72.62627128 140.98698517 72 143 C71.34 143 70.68 143 70 143 C70 144.32 70 145.64 70 147 C69.34 147 68.68 147 68 147 C67.855625 147.598125 67.71125 148.19625 67.5625 148.8125 C67.1127561 150.56150404 66.57107659 152.28677023 66 154 C65.34 154 64.68 154 64 154 C63.9175 154.7425 63.835 155.485 63.75 156.25 C62.82553044 159.63972173 61.57656965 160.6323414 59 163 C57.43269188 164.85190882 55.89526934 166.72500465 54.3671875 168.609375 C53.91601562 169.06828125 53.46484375 169.5271875 53 170 C52.34 170 51.68 170 51 170 C51 170.66 51 171.32 51 172 C50.34 172 49.68 172 49 172 C49 172.66 49 173.32 49 174 C48.34 174 47.68 174 47 174 C46.65195312 174.88171875 46.65195312 174.88171875 46.296875 175.78125 C44.6782258 178.55050525 42.91105204 179.72596531 40.25 181.5 C39.35667969 182.09941406 38.46335938 182.69882813 37.54296875 183.31640625 C36.70378906 183.87199219 35.86460937 184.42757812 35 185 C34.37738281 185.44214844 33.75476563 185.88429687 33.11328125 186.33984375 C30.47826753 188.20492903 29.31480153 189 26 189 C26 189.66 26 190.32 26 191 C24.10908264 191.84442881 22.21202485 192.67511587 20.3125 193.5 C19.25675781 193.9640625 18.20101562 194.428125 17.11328125 194.90625 C14.14372184 195.94950801 12.10804937 196.23065301 9 196 C8.67 196.66 8.34 197.32 8 198 C3.01611612 199.72910257 -1.77065827 200.40959045 -7 201 C-8.19641113 201.25583862 -8.19641113 201.25583862 -9.41699219 201.5168457 C-13.99328988 202.37284695 -18.60737778 202.18455043 -23.25 202.1875 C-24.24902344 202.19974609 -25.24804688 202.21199219 -26.27734375 202.22460938 C-32.47773138 202.236767 -38.01669748 201.59631149 -44 200 C-44.93972656 199.79117188 -45.87945312 199.58234375 -46.84765625 199.3671875 C-48.8984375 198.91145833 -50.94921875 198.45572917 -53 198 C-53 197.34 -53 196.68 -53 196 C-54.155 195.95875 -55.31 195.9175 -56.5 195.875 C-61.6023771 195.25542564 -65.50898723 192.73241259 -69 189 C-69 188.01 -69 187.02 -69 186 C-68.34 186 -67.68 186 -67 186 C-67.33 185.01 -67.66 184.02 -68 183 C-66.78137264 179.56568654 -64.63249349 177.45699392 -62 175 C-60 176 -58 177 -56 178 C-56 178.66 -56 179.32 -56 180 C-55.42765625 179.81566406 -54.8553125 179.63132813 -54.265625 179.44140625 C-50.55442821 178.71836274 -47.60238895 179.97932313 -44 181 C-44 181.66 -44 182.32 -44 183 C-43.11441406 182.83371094 -42.22882813 182.66742188 -41.31640625 182.49609375 C-34.42457945 181.50956559 -27.36788617 181.99950459 -20.42773438 182.12695312 C-18.74454102 182.14338867 -18.74454102 182.14338867 -17.02734375 182.16015625 C-16.01406006 182.17699463 -15.00077637 182.19383301 -13.95678711 182.21118164 C-10.68245039 181.97731976 -8.07029326 181.13435781 -5 180 C-3.865625 179.690625 -2.73125 179.38125 -1.5625 179.0625 C3.29742764 177.6130479 7.75306434 175.64744736 12.25 173.3125 C15 172 15 172 18 172 C18.33 171.34 18.66 170.68 19 170 C20.55859375 168.7109375 20.55859375 168.7109375 22.4375 167.375 C23.05496094 166.92898437 23.67242187 166.48296875 24.30859375 166.0234375 C26 165 26 165 28 165 C28.66 163.68 29.32 162.36 30 161 C30.66 161 31.32 161 32 161 C32 160.34 32 159.68 32 159 C32.66 159 33.32 159 34 159 C34 158.34 34 157.68 34 157 C34.66 157 35.32 157 36 157 C36.66 155.68 37.32 154.36 38 153 C38.66 153 39.32 153 40 153 C40 152.34 40 151.68 40 151 C40.66 151 41.32 151 42 151 C42.185625 149.7934375 42.185625 149.7934375 42.375 148.5625 C42.58125 147.716875 42.7875 146.87125 43 146 C43.66 145.67 44.32 145.34 45 145 C46.05464649 143.0282696 47.04605164 141.02237052 48 139 C48.515625 138.01 49.03125 137.02 49.5625 136 C50.97692825 133.04814974 52.03312658 130.12374489 53 127 C53.66 127 54.32 127 55 127 C54.67 126.01 54.34 125.02 54 124 C54.59734611 121.97821315 55.27648573 119.98014432 56 118 C57.99436761 112.20823871 58.3043724 107.04080184 58.25 100.9375 C58.25773438 100.06544922 58.26546875 99.19339844 58.2734375 98.29492188 C58.25877361 93.45217061 57.8484186 89.54995349 56 85 C55.65657551 83.66923011 55.32380126 82.33568021 55 81 C53.79250263 76.3904248 53.79250263 76.3904248 52 72 C52.33 71.34 52.66 70.68 53 70 C52.34 70 51.68 70 51 70 C51 68.68 51 67.36 51 66 C50.34 65.67 49.68 65.34 49 65 C47.92566248 63.40986649 46.91248177 61.77791749 45.9375 60.125 C45.41027344 59.24070313 44.88304687 58.35640625 44.33984375 57.4453125 C43 55 43 55 42 52 C41.34 51.67 40.68 51.34 40 51 C38 50 38 50 37 47 C35.3663139 45.63169753 35.3663139 45.63169753 33.4375 44.4375 C31.49609375 43.18359375 31.49609375 43.18359375 30 42 C30 41.34 30 40.68 30 40 C29.44054687 39.89429688 28.88109375 39.78859375 28.3046875 39.6796875 C25.57858949 38.87571961 23.53243865 37.63246159 21.125 36.125 C10.40825701 29.56979517 1.4503412 26.57805238 -11.125 26.25 C-12.17042969 26.20746094 -13.21585938 26.16492188 -14.29296875 26.12109375 C-21.71706656 25.86767954 -28.10250244 25.9933985 -35 29 C-35.94875 29.309375 -36.8975 29.61875 -37.875 29.9375 C-44.3677381 32.14503096 -49.49099016 34.83786051 -55.08203125 38.79296875 C-57 40 -57 40 -59 40 C-59.309375 40.8353125 -59.309375 40.8353125 -59.625 41.6875 C-61.50372154 44.84716804 -64.19006453 46.65838711 -67 49 C-68.37254588 51.14980497 -68.37254588 51.14980497 -69 53 C-69.66 53 -70.32 53 -71 53 C-71.103125 53.721875 -71.20625 54.44375 -71.3125 55.1875 C-72.06782523 58.27746686 -73.19137976 60.39558686 -75 63 C-75.99 63.495 -75.99 63.495 -77 64 C-77.2165625 65.299375 -77.2165625 65.299375 -77.4375 66.625 C-78 70 -78 70 -79.5625 73.5 C-81.0325222 77.0791845 -81.16533045 79.19739969 -81 83 C-81.15984375 83.74765625 -81.3196875 84.4953125 -81.484375 85.265625 C-82.08176097 88.43358092 -82.13240802 91.40251295 -82.125 94.625 C-82.12757812 95.75164062 -82.13015625 96.87828125 -82.1328125 98.0390625 C-82.13259517 101.05788082 -82.13259517 101.05788082 -81 104 C-80.7834375 104.8971875 -80.7834375 104.8971875 -80.5625 105.8125 C-79.56365876 109.6968826 -78.18628013 113.46185739 -76.875 117.25 C-76 120 -76 120 -76 122 C-75.34 122.33 -74.68 122.66 -74 123 C-72.91298359 124.44238716 -71.83019218 125.88830578 -70.77685547 127.35546875 C-65.95228958 134.04159754 -61.14603972 138.73806455 -54 143 C-53.25234375 143.48082031 -52.5046875 143.96164063 -51.734375 144.45703125 C-44.90373435 148.91422704 -44.90373435 148.91422704 -37 150 C-36.40960938 150.15984375 -35.81921875 150.3196875 -35.2109375 150.484375 C-28.67075889 152.00964634 -21.14067937 151.71332344 -15 149 C-13.845 148.54625 -12.69 148.0925 -11.5 147.625 C-6.72991211 145.41031633 -2.72709586 142.65893931 1.25 139.25 C4 137 4 137 6 137 C6 136.34 6 135.68 6 135 C6.928125 134.7834375 6.928125 134.7834375 7.875 134.5625 C10.03258322 134.06847775 10.03258322 134.06847775 12 133 C12.2165625 132.13375 12.2165625 132.13375 12.4375 131.25 C13 129 13 129 14.5 126.625 C16.19026078 123.66704364 16.57976576 121.36187396 17 118 C17.185625 117.154375 17.37125 116.30875 17.5625 115.4375 C18.01648963 112.9081292 18.073261 110.56413496 18 108 C18.66 108 19.32 108 20 108 C20 106.02 20 104.04 20 102 C19.34 102 18.68 102 18 102 C18.33 100.35 18.66 98.7 19 97 C14.42018427 95.09174345 10.98813595 94 6 94 C7.36439152 88.84563204 10.72573615 85.93351599 15 83 C15.66 83 16.32 83 17 83 C17.66 82.34 18.32 81.68 19 81 C24.27062328 78.45493876 29.25076635 78.34096266 35 79 C40.01609785 81.3479607 41.41473421 85.50878308 43.21875 90.484375 C45.7679486 98.6927945 45.9710366 106.96072449 43 115 C42.835 116.155 42.67 117.31 42.5 118.5 C42.0157018 121.89008739 41.14385391 124.78291088 40 128 C39.65023242 129.32911682 39.30903983 130.66082739 39 132 C38.34 132 37.68 132 37 132 C36.9175 132.515625 36.835 133.03125 36.75 133.5625 C35.67859775 137.04455732 33.86476395 139.87200885 32 143 C31.34 143 30.68 143 30 143 C30 143.99 30 144.98 30 146 C27.41041797 148.93952555 25.74633486 150.75122171 22 152 C22 152.66 22 153.32 22 154 C20.1875 156.125 20.1875 156.125 18 158 C17.01 158 16.02 158 15 158 C14.67 158.99 14.34 159.98 14 161 C11.69674163 162.38603158 9.47372231 163.58859857 7.0625 164.75 C6.09280273 165.24306641 6.09280273 165.24306641 5.10351562 165.74609375 C3.43499444 166.56735963 1.71939715 167.29139996 0 168 C-0.66 167.67 -1.32 167.34 -2 167 C-2 167.66 -2 168.32 -2 169 C-4.66666667 169.66666667 -7.33333333 170.33333333 -10 171 C-10.65484375 171.1753125 -11.3096875 171.350625 -11.984375 171.53125 C-22.01678079 173.86436763 -33.31074704 174.06090188 -43.2578125 171.4375 C-45.0239153 170.91881372 -45.0239153 170.91881372 -47 171 C-47 170.34 -47 169.68 -47 169 C-47.639375 169.0825 -48.27875 169.165 -48.9375 169.25 C-55.3601329 168.72570344 -61.34171987 164.90168212 -67 162 C-67 161.34 -67 160.68 -67 160 C-68.32 159.67 -69.64 159.34 -71 159 C-72.02020925 161.84506244 -72.02020925 161.84506244 -72.4375 164.25 C-73.11469928 167.56075205 -74.04956725 170.7573471 -75 174 C-75.4640625 175.7325 -75.4640625 175.7325 -75.9375 177.5 C-77.05067069 181.16691523 -78.43217524 184.50802668 -80 188 C-80.66 188 -81.32 188 -82 188 C-81.67 188.99 -81.34 189.98 -81 191 C-81.99 191.33 -82.98 191.66 -84 192 C-83.67 192.99 -83.34 193.98 -83 195 C-84.3984375 197.375 -84.3984375 197.375 -86.375 200 C-89.17019581 203.74116756 -89.17019581 203.74116756 -91 208 C-91.66 208 -92.32 208 -93 208 C-93 208.66 -93 209.32 -93 210 C-93.66 210 -94.32 210 -95 210 C-95.061875 210.556875 -95.12375 211.11375 -95.1875 211.6875 C-96.34797334 214.99038567 -98.47126004 216.58120525 -101 219 C-102.06750904 220.28752999 -103.12962596 221.57954196 -104.1875 222.875 C-110.07881512 229.66281959 -117.78237268 234.47815972 -126 238 C-126.66 237.67 -127.32 237.34 -128 237 C-128 237.66 -128 238.32 -128 239 C-137.42692758 242.17379526 -147.62045468 244.24464169 -157 240 C-157.99 239.67 -158.98 239.34 -160 239 C-160 238.34 -160 237.68 -160 237 C-160.99 237.33 -161.98 237.66 -163 238 C-165.04296875 237.07421875 -165.04296875 237.07421875 -167.1875 235.6875 C-168.26064453 235.01267578 -168.26064453 235.01267578 -169.35546875 234.32421875 C-169.89816406 233.88722656 -170.44085938 233.45023438 -171 233 C-171 232.34 -171 231.68 -171 231 C-171.928125 230.62875 -171.928125 230.62875 -172.875 230.25 C-175.40358627 228.76259631 -175.71839004 227.56321991 -177 225 C-177.680625 224.67 -178.36125 224.34 -179.0625 224 C-181 223 -181 223 -181.75 220.875 C-181.87375 219.946875 -181.87375 219.946875 -182 219 C-182.66 219 -183.32 219 -184 219 C-183.505 217.02 -183.505 217.02 -183 215 C-182.1028125 214.7834375 -182.1028125 214.7834375 -181.1875 214.5625 C-179.43849596 214.1127561 -177.71322977 213.57107659 -176 213 C-175.34 213.33 -174.68 213.66 -174 214 C-174 213.34 -174 212.68 -174 212 C-172.9790625 211.5978125 -172.9790625 211.5978125 -171.9375 211.1875 C-165.48255722 208.87473938 -165.48255722 208.87473938 -160 205 C-159.01 205 -158.02 205 -157 205 C-157 204.34 -157 203.68 -157 203 C-156.05125 202.7525 -155.1025 202.505 -154.125 202.25 C-150.52200689 200.80880276 -150.47700952 200.34788824 -149 197 C-144.55555556 193 -144.55555556 193 -142 193 C-141.34 191.68 -140.68 190.36 -140 189 C-139.34 189 -138.68 189 -138 189 C-137.67 187.68 -137.34 186.36 -137 185 C-136.34 185 -135.68 185 -135 185 C-134.814375 184.0409375 -134.814375 184.0409375 -134.625 183.0625 C-134.315625 182.0415625 -134.315625 182.0415625 -134 181 C-133.34 180.67 -132.68 180.34 -132 180 C-131.31867549 178.33927151 -130.65257873 176.672233 -130 175 C-128 173 -128 173 -126 172 C-125.6451046 170.00371336 -125.31421071 168.00309329 -125 166 C-123.9375 163.625 -123.9375 163.625 -123 162 C-122.34 162 -121.68 162 -121 162 C-120.814375 160.4840625 -120.814375 160.4840625 -120.625 158.9375 C-120.02331105 155.14685959 -119.1137289 151.66875401 -118 148 C-117.32215008 145.66989091 -116.65583207 143.33640176 -116 141 C-115.71769531 140.0409375 -115.71769531 140.0409375 -115.4296875 139.0625 C-114.08638384 134.21903891 -113.91632915 130.02025071 -114 125 C-113.83757812 124.42266113 -113.67515625 123.84532227 -113.5078125 123.25048828 C-112.75844921 119.92951194 -112.89831271 116.62708444 -112.9375 113.2421875 C-112.94128662 112.49792511 -112.94507324 111.75366272 -112.94897461 110.98684692 C-112.96116365 108.61617171 -112.97979995 106.24561968 -113 103.875 C-113.02653186 100.74739924 -113.04654618 97.61985806 -113.0625 94.4921875 C-113.07494751 93.41093094 -113.07494751 93.41093094 -113.08764648 92.30783081 C-113.11279133 87.22558266 -113.11279133 87.22558266 -112 85 C-112.020625 83.7625 -112.04125 82.525 -112.0625 81.25 C-112.11743049 77.45979605 -111.37447753 74.55747125 -110 71 C-109.65023242 69.67088318 -109.30903983 68.33917261 -109 67 C-108.34 67 -107.68 67 -107 67 C-107.33 66.01 -107.66 65.02 -108 64 C-107.5625 61.8125 -107.5625 61.8125 -107 60 C-106.34 60 -105.68 60 -105 60 C-104.67 58.02 -104.34 56.04 -104 54 C-103.34 54 -102.68 54 -102 54 C-101.9071875 52.7315625 -101.9071875 52.7315625 -101.8125 51.4375 C-100.91334101 47.63336579 -99.50998729 45.55358825 -97.15625 42.515625 C-95.91604526 40.98787692 -95.91604526 40.98787692 -95 39 C-94.34 39 -93.68 39 -93 39 C-93 38.34 -93 37.68 -93 37 C-92.34 37 -91.68 37 -91 37 C-90.67 35.68 -90.34 34.36 -90 33 C-89.34 33 -88.68 33 -88 33 C-87.9175 32.38125 -87.835 31.7625 -87.75 31.125 C-87 29 -87 29 -84.9375 27.75 C-84.298125 27.5025 -83.65875 27.255 -83 27 C-83 26.34 -83 25.68 -83 25 C-81.57421875 23.52734375 -81.57421875 23.52734375 -79.6875 21.9375 C-79.07261719 21.41027344 -78.45773438 20.88304688 -77.82421875 20.33984375 C-76 19 -76 19 -73 18 C-72.484375 17.4225 -71.96875 16.845 -71.4375 16.25 C-68.38511529 13.43241412 -65.13054607 11.94490019 -61.3984375 10.171875 C-58.87292539 8.99619322 -58.87292539 8.99619322 -56.1875 7.1875 C-53.61175493 5.78923839 -51.888415 5.75242157 -49 6 C-49 5.34 -49 4.68 -49 4 C-33.49736873 -1.24919795 -16.18178459 -3.05086437 0 0 Z " fill="#FCFBFB" transform="translate(184,43)"/>
<path d="M0 0 C0.76763672 0.00064453 1.53527344 0.00128906 2.32617188 0.00195312 C10.1730269 0.06352391 10.1730269 0.06352391 13.125 2.6875 C14.78502195 5.84944657 14.63452236 8.16278487 14.4453125 11.67578125 C14.37396128 14.32903251 14.37396128 14.32903251 14.9296875 17.484375 C15.55752779 22.0627796 15.4877288 26.53570525 15.3984375 31.13867188 C15.39070312 31.80318359 15.38296875 32.46769531 15.375 33.15234375 C15.36339844 33.7362085 15.35179687 34.32007324 15.33984375 34.92163086 C15.40499762 37.36375109 15.40499762 37.36375109 15.92871094 40.45410156 C16.80925532 47.2455395 16.6232057 54.12011339 16.640625 60.95703125 C16.64486607 62.0822799 16.64486607 62.0822799 16.64919281 63.23026085 C16.66409856 67.18891112 16.67338624 71.14752566 16.67773438 75.10620117 C16.68325127 79.19299608 16.7073705 83.27946322 16.73570633 87.36615467 C16.75429985 90.51538575 16.75953622 93.66453663 16.76107025 96.81381798 C16.76409746 98.32133492 16.77212835 99.82885042 16.78525543 101.33631325 C16.80227111 103.43776593 16.800449 105.53839938 16.79394531 107.63989258 C16.79941376 109.43237175 16.79941376 109.43237175 16.80499268 111.26106262 C16.4375 114.1875 16.4375 114.1875 15.05302429 116.07048035 C11.60950728 118.45142639 7.03473599 117.69835336 3 117.6875 C2.04544922 117.71585937 1.09089844 117.74421875 0.10742188 117.7734375 C-6.84626449 117.79290198 -6.84626449 117.79290198 -10.23828125 114.92578125 C-12.24198698 110.78242514 -11.46383926 108.6190847 -10.5625 104.1875 C-11.2225 104.1875 -11.8825 104.1875 -12.5625 104.1875 C-12.7171875 105.0846875 -12.7171875 105.0846875 -12.875 106 C-13.66753854 108.52171352 -14.47841409 109.58435699 -16.5625 111.1875 C-17.5525 111.1875 -18.5425 111.1875 -19.5625 111.1875 C-19.5625 111.8475 -19.5625 112.5075 -19.5625 113.1875 C-28.79983369 117.51135832 -37.93475109 119.48937925 -48.0625 117.5 C-54.77343662 114.98339877 -60.99764349 111.85898839 -65.5625 106.1875 C-66.28601427 104.20735568 -66.96515389 102.20928685 -67.5625 100.1875 C-68.2225 99.8575 -68.8825 99.5275 -69.5625 99.1875 C-69.5625 98.1975 -69.5625 97.2075 -69.5625 96.1875 C-70.2225 95.8575 -70.8825 95.5275 -71.5625 95.1875 C-76.0236545 84.87108023 -77.74015655 70.75451363 -73.5625 60.1875 C-73.315 58.6715625 -73.315 58.6715625 -73.0625 57.125 C-72.10276839 51.4865768 -69.4261926 47.05577741 -66.5625 42.1875 C-65.9025 42.1875 -65.2425 42.1875 -64.5625 42.1875 C-64.376875 41.48625 -64.19125 40.785 -64 40.0625 C-60.84387121 33.75024242 -54.92891545 30.23576009 -48.43359375 27.8828125 C-38.91461484 25.57753597 -30.19822935 26.73034937 -21.5625 31.1875 C-21.5625 31.8475 -21.5625 32.5075 -21.5625 33.1875 C-20.82 33.414375 -20.0775 33.64125 -19.3125 33.875 C-16.0199253 35.4464561 -14.58752891 37.18745716 -12.5625 40.1875 C-12.5625 40.8475 -12.5625 41.5075 -12.5625 42.1875 C-11.9025 42.1875 -11.2425 42.1875 -10.5625 42.1875 C-10.541875 40.970625 -10.52125 39.75375 -10.5 38.5 C-10.48839844 37.81550781 -10.47679687 37.13101563 -10.46484375 36.42578125 C-10.50634737 34.15149285 -10.50634737 34.15149285 -11.0390625 31.8203125 C-11.8525044 27.72882115 -11.95280139 23.60057923 -12.18359375 19.44140625 C-12.570633 16.11765678 -13.46839729 13.33798852 -14.5625 10.1875 C-14.6875 6.8125 -14.6875 6.8125 -14.5625 4.1875 C-13.9025 4.1875 -13.2425 4.1875 -12.5625 4.1875 C-12.5625 3.5275 -12.5625 2.8675 -12.5625 2.1875 C-8.61518926 -0.47561898 -4.57086364 -0.07328811 0 0 Z M-45.125 54.609375 C-46.99123432 56.65817572 -47.81297739 58.53010167 -48.5625 61.1875 C-48.89894531 61.93515625 -49.23539063 62.6828125 -49.58203125 63.453125 C-52.42880096 71.3923234 -50.95117693 79.78075591 -47.53515625 87.26171875 C-47.21417969 87.89722656 -46.89320313 88.53273437 -46.5625 89.1875 C-46.2325 89.8475 -45.9025 90.5075 -45.5625 91.1875 C-44.9025 91.1875 -44.2425 91.1875 -43.5625 91.1875 C-43.2325 91.8475 -42.9025 92.5075 -42.5625 93.1875 C-37.58318828 97.20307396 -31.45657537 97.55360965 -25.27734375 96.97265625 C-21.70336777 96.27122171 -19.76486534 95.400804 -17.25 92.75 C-16.693125 91.904375 -16.13625 91.05875 -15.5625 90.1875 C-14.985 89.65125 -14.4075 89.115 -13.8125 88.5625 C-12.2261636 87.12723973 -12.2261636 87.12723973 -12.5625 84.1875 C-11.9025 84.1875 -11.2425 84.1875 -10.5625 84.1875 C-11.0575 82.2075 -11.0575 82.2075 -11.5625 80.1875 C-10.9025 79.8575 -10.2425 79.5275 -9.5625 79.1875 C-8.2339685 73.49838526 -8.26041153 68.60417875 -10.5625 63.1875 C-10.5625 62.5275 -10.5625 61.8675 -10.5625 61.1875 C-11.2225 61.1875 -11.8825 61.1875 -12.5625 61.1875 C-12.60375 60.28 -12.645 59.3725 -12.6875 58.4375 C-13.27892931 54.94568075 -13.27892931 54.94568075 -16.4375 52.9375 C-17.46875 52.36 -18.5 51.7825 -19.5625 51.1875 C-20.5525 50.5275 -21.5425 49.8675 -22.5625 49.1875 C-31.43679977 47.26370075 -38.36130055 48.38918712 -45.125 54.609375 Z " fill="#FCFBFB" transform="translate(632.5625,109.8125)"/>
<path d="M0 0 C0.71241852 -0.0065712 1.42483704 -0.0131424 2.15884399 -0.01991272 C4.52158714 -0.039657 6.88426664 -0.05131188 9.24707031 -0.0612793 C10.05415688 -0.06535482 10.86124344 -0.06943035 11.69278717 -0.07362938 C15.96608729 -0.09449676 20.23935525 -0.10879453 24.51269531 -0.11816406 C28.92230029 -0.12921901 33.33139932 -0.16360602 37.74082565 -0.20333576 C41.13467329 -0.2295114 44.52840069 -0.23785681 47.92234039 -0.24144554 C49.54741068 -0.24631051 51.17247564 -0.25792205 52.7974472 -0.27648354 C55.07630673 -0.3008922 57.35386165 -0.29990734 59.6328125 -0.29296875 C60.92805847 -0.29883499 62.22330444 -0.30470123 63.55780029 -0.31074524 C67.70708759 0.26462466 69.88591221 1.49626536 73.07519531 4.17700195 C73.62597656 7.20043945 73.62597656 7.20043945 73.38769531 10.55200195 C73.12221006 14.9975785 73.27272683 18.79831524 74.07519531 23.17700195 C74.23138977 25.06925934 74.33739893 26.96647535 74.38769531 28.86450195 C74.44376953 30.26249023 74.44376953 30.26249023 74.50097656 31.6887207 C74.07519531 34.17700195 74.07519531 34.17700195 72.18066406 36.0090332 C70.07519531 37.17700195 70.07519531 37.17700195 68.07519531 37.17700195 C68.07519531 36.51700195 68.07519531 35.85700195 68.07519531 35.17700195 C67.43582031 34.90887695 66.79644531 34.64075195 66.13769531 34.36450195 C64.07519531 33.17700195 64.07519531 33.17700195 63.07519531 30.17700195 C62.41519531 30.17700195 61.75519531 30.17700195 61.07519531 30.17700195 C61.07519531 29.51700195 61.07519531 28.85700195 61.07519531 28.17700195 C58.4084181 27.07891722 55.75550834 26.07261437 53.01269531 25.17700195 C50.07519531 24.17700195 50.07519531 24.17700195 48.24243164 23.13330078 C43.77392111 21.16155855 38.56828368 21.85076385 33.76269531 21.86450195 C32.08916992 21.84033203 32.08916992 21.84033203 30.38183594 21.81567383 C22.51184978 21.81100875 17.54356953 22.59417009 11.13769531 27.36450195 C8.25582946 31.29431902 8.61034872 33.37358714 9.07519531 38.17700195 C9.40519531 39.16700195 9.73519531 40.15700195 10.07519531 41.17700195 C12.09027889 41.91023991 12.09027889 41.91023991 14.07519531 42.17700195 C14.07519531 42.83700195 14.07519531 43.49700195 14.07519531 44.17700195 C14.63207031 43.97075195 15.18894531 43.76450195 15.76269531 43.55200195 C18.07519531 43.17700195 18.07519531 43.17700195 20.30175781 44.1418457 C23.61054631 45.37681606 26.24026208 45.40868299 29.76269531 45.36450195 C30.9009375 45.35805664 32.03917969 45.35161133 33.21191406 45.3449707 C36.01966712 45.36896034 36.01966712 45.36896034 38.07519531 44.17700195 C39.76209763 44.13209274 41.45064232 44.13816332 43.13769531 44.17700195 C44.78309518 44.21477297 46.43001687 44.22342674 48.07519531 44.17700195 C48.40519531 43.84700195 48.73519531 43.51700195 49.07519531 43.17700195 C51.07477895 43.13619412 53.07564785 43.13445839 55.07519531 43.17700195 C55.36394531 43.81637695 55.65269531 44.45575195 55.95019531 45.11450195 C56.90342982 47.32906274 56.90342982 47.32906274 59.07519531 48.17700195 C58.74519531 54.77700195 58.41519531 61.37700195 58.07519531 68.17700195 C53.07519531 70.17700195 53.07519531 70.17700195 49.76269531 68.80200195 C48.87582031 68.26575195 47.98894531 67.72950195 47.07519531 67.17700195 C47.07519531 66.51700195 47.07519531 65.85700195 47.07519531 65.17700195 C46.44871094 65.11641602 45.82222656 65.05583008 45.17675781 64.9934082 C44.35949219 64.90961914 43.54222656 64.82583008 42.70019531 64.73950195 C41.48203125 64.61768555 41.48203125 64.61768555 40.23925781 64.4934082 C38.07519531 64.17700195 38.07519531 64.17700195 36.07519531 63.17700195 C33.62415065 63.05227424 31.21388183 62.99183864 28.76269531 62.98950195 C27.4465625 62.97532227 26.13042969 62.96114258 24.77441406 62.9465332 C21.32409475 63.16149502 19.16572345 63.73811476 16.07519531 65.17700195 C15.35332031 65.25950195 14.63144531 65.34200195 13.88769531 65.42700195 C11.73220159 66.07037146 11.73220159 66.07037146 10.88769531 68.98950195 C10.61957031 70.04137695 10.35144531 71.09325195 10.07519531 72.17700195 C9.80835938 73.07032227 9.80835938 73.07032227 9.53613281 73.98168945 C7.99723237 81.31102883 8.54103173 89.17078499 11.07519531 96.17700195 C11.42222904 97.50683521 11.75399121 98.8406948 12.07519531 100.17700195 C12.28660156 100.98137695 12.49800781 101.78575195 12.71582031 102.61450195 C12.91691406 103.46012695 13.11800781 104.30575195 13.32519531 105.17700195 C13.53660156 106.02262695 13.74800781 106.86825195 13.96582031 107.73950195 C14.07519531 110.17700195 14.07519531 110.17700195 12.91967773 112.29394531 C10.47039012 114.79445562 9.13140911 114.70439866 5.67285156 114.7434082 C3.4945572 114.76336814 1.31597335 114.76117002 -0.86230469 114.73950195 C-2.50875977 114.77527344 -2.50875977 114.77527344 -4.18847656 114.81176758 C-11.97849788 114.79750884 -11.97849788 114.79750884 -15.65917969 112.3840332 C-17.63131537 107.38673876 -17.38126849 102.61906489 -17.23730469 97.30200195 C-17.22763672 96.23852539 -17.21796875 95.17504883 -17.20800781 94.0793457 C-17.14875032 89.9313214 -17.03992949 85.93216122 -16.41381836 81.82519531 C-15.88422274 77.87424804 -15.81588686 74.02310077 -15.86230469 70.0480957 C-15.86609131 69.2953688 -15.86987793 68.54264191 -15.8737793 67.7671051 C-15.88589714 65.38284299 -15.90451974 62.99870768 -15.92480469 60.61450195 C-15.95152112 57.46736947 -15.97145241 54.32029961 -15.98730469 51.1730957 C-15.99560303 50.46044052 -16.00390137 49.74778534 -16.01245117 49.01353455 C-16.03225632 44.95037024 -15.67651245 41.16604488 -14.92480469 37.17700195 C-14.88494526 35.61501044 -14.88119167 34.05139316 -14.92480469 32.48950195 C-15.00514668 29.58212592 -14.86714134 28.00401191 -13.92480469 25.17700195 C-13.90039338 23.66786012 -13.9327966 22.15736717 -14.00292969 20.6496582 C-14.02871094 19.7750293 -14.05449219 18.90040039 -14.08105469 17.99926758 C-14.14344245 16.16272796 -14.22151765 14.32665276 -14.31542969 12.49145508 C-14.47378395 5.76634734 -14.47378395 5.76634734 -11.53417969 2.6105957 C-7.29456036 0.28134376 -4.90806887 0.03739448 0 0 Z " fill="#FCFBFB" transform="translate(319.9248046875,112.822998046875)"/>
<path d="M0 0 C0.99 0.495 0.99 0.495 2 1 C2 1.66 2 2.32 2 3 C2.89525391 3.39638672 2.89525391 3.39638672 3.80859375 3.80078125 C9.72346745 7.03761944 12.72882681 12.90369301 15 19 C15.495 19.99 15.495 19.99 16 21 C15.505 22.485 15.505 22.485 15 24 C15.66 24 16.32 24 17 24 C18.10844919 27.32534757 17.84454356 29.62182575 17 33 C17.66 33 18.32 33 19 33 C18.99214478 33.86782104 18.99214478 33.86782104 18.98413086 34.75317383 C18.75780293 47.33252683 18.75780293 47.33252683 19.5 59.875 C19.96195712 64.18430146 20.21163595 68.48059938 20.3125 72.8125 C20.36857422 74.64748047 20.36857422 74.64748047 20.42578125 76.51953125 C19.88859578 80.91065284 19.17637134 82.88043411 16 86 C12.55505778 86.73005145 9.25129767 86.56624735 5.75 86.375 C4.34621094 86.33439453 4.34621094 86.33439453 2.9140625 86.29296875 C0.6070276 86.22234523 -1.69530769 86.12380579 -4 86 C-4.33 85.01 -4.66 84.02 -5 83 C-6.485 82.505 -6.485 82.505 -8 82 C-8.07455741 78.12301475 -8.04859979 74.72835482 -7 71 C-5.88340203 64.80871425 -5.81650305 58.71828021 -5.8125 52.4375 C-5.80025391 51.42236328 -5.78800781 50.40722656 -5.77539062 49.36132812 C-5.76519927 44.16033787 -5.93256761 39.86229469 -8 35 C-9.12696614 31.68539371 -10.21248042 28.41258483 -11 25 C-11.66 25 -12.32 25 -13 25 C-13 24.34 -13 23.68 -13 23 C-13.78375 22.71125 -14.5675 22.4225 -15.375 22.125 C-18 21 -18 21 -20 19 C-25.9372855 18.26381484 -31.12539929 18.22611558 -36 22 C-36.66 22 -37.32 22 -38 22 C-38 22.66 -38 23.32 -38 24 C-38.66 24 -39.32 24 -40 24 C-40.99 26.475 -40.99 26.475 -42 29 C-42.66 29 -43.32 29 -44 29 C-43.67 29.99 -43.34 30.98 -43 32 C-43.37481372 34.2488823 -43.99628964 35.99270577 -45.03125 38.02734375 C-46.41185386 42.26379351 -46.25085096 46.26293575 -46.1875 50.6875 C-46.1865332 51.9878418 -46.1865332 51.9878418 -46.18554688 53.31445312 C-46.29976426 57.80941761 -46.29976426 57.80941761 -45 62 C-44.95483567 63.43679032 -44.96135851 64.87551946 -45 66.3125 C-45.03750726 68.92550579 -44.987185 71.05980333 -44.4375 73.625 C-43.81435745 77.00777384 -44.19815654 79.66926563 -45 83 C-47.82582771 85.71119285 -49.82308752 86.38214483 -53.6953125 86.3984375 C-55.01595703 86.40423828 -55.01595703 86.40423828 -56.36328125 86.41015625 C-57.73033203 86.39275391 -57.73033203 86.39275391 -59.125 86.375 C-60.04410156 86.38660156 -60.96320313 86.39820313 -61.91015625 86.41015625 C-63.22693359 86.40435547 -63.22693359 86.40435547 -64.5703125 86.3984375 C-65.37227051 86.39505371 -66.17422852 86.39166992 -67.00048828 86.38818359 C-67.99024658 86.19603271 -67.99024658 86.19603271 -69 86 C-71.17906049 82.73140926 -71.26681192 81.702673 -71.3347168 77.90527344 C-71.35781418 76.86699402 -71.38091156 75.8287146 -71.40470886 74.75897217 C-71.41939713 73.6371051 -71.43408539 72.51523804 -71.44921875 71.359375 C-71.47095657 70.20383118 -71.4926944 69.04828735 -71.51509094 67.85772705 C-71.5590408 65.40995014 -71.59823302 62.96208391 -71.63305664 60.51416016 C-71.68708529 56.77867284 -71.75734719 53.04375872 -71.83007812 49.30859375 C-71.87076012 46.92970386 -71.91050407 44.55079772 -71.94921875 42.171875 C-71.96997971 41.05810486 -71.99074066 39.94433472 -72.01213074 38.79681396 C-72.08218862 33.39958972 -71.97446652 28.31205784 -71 23 C-69.97013677 17.27853761 -70.0241519 11.87247351 -70.2578125 6.0859375 C-69.96351128 2.56324104 -69.16388338 0.7727901 -67 -2 C-64.43378845 -2.69501563 -62.61048488 -2.929319 -60 -3 C-59.10023438 -3.05027344 -58.20046875 -3.10054687 -57.2734375 -3.15234375 C-47.72230094 -3.47414754 -47.72230094 -3.47414754 -44 0 C-43.1875 2.1875 -43.1875 2.1875 -43 4 C-43.66 4 -44.32 4 -45 4 C-44.34 5.98 -43.68 7.96 -43 10 C-42.41992188 9.25943359 -42.41992188 9.25943359 -41.828125 8.50390625 C-41.30734375 7.86324219 -40.7865625 7.22257813 -40.25 6.5625 C-39.48429687 5.60537109 -39.48429687 5.60537109 -38.703125 4.62890625 C-36.80332371 2.81189446 -35.56413092 2.39576803 -33 2 C-33 1.34 -33 0.68 -33 0 C-21.75564539 -5.68563303 -11.23642776 -5.67519374 0 0 Z " fill="#FCFCFB" transform="translate(527,141)"/>
<path d="M0 0 C2 2 2 2 2.1875 4.75 C2.00560889 7.90277932 1.54055281 10.89182135 1 14 C1 15.32 1 16.64 1 18 C4.0833134 18.02911321 7.16659125 18.04683682 10.25 18.0625 C11.12269531 18.07087891 11.99539063 18.07925781 12.89453125 18.08789062 C13.73886719 18.09111328 14.58320312 18.09433594 15.453125 18.09765625 C16.61569824 18.10551147 16.61569824 18.10551147 17.80175781 18.11352539 C20.00751414 18.07734813 20.00751414 18.07734813 22.09667969 17.43139648 C24 17 24 17 27 18 C29.1875 19.5 29.1875 19.5 31 22 C31.77268885 26.98058476 31.33073357 31.48420372 29 36 C28.34 36 27.68 36 27 36 C27 36.66 27 37.32 27 38 C25.80117188 37.89171875 25.80117188 37.89171875 24.578125 37.78125 C17.02957873 37.14334468 9.5738692 36.8771805 2 37 C1.34 38.32 0.68 39.64 0 41 C-0.66 41 -1.32 41 -2 41 C-1.89171875 42.13308594 -1.89171875 42.13308594 -1.78125 43.2890625 C-1.29213563 49.09050243 -0.96239436 54.79630671 -1.0390625 60.6171875 C-1.05743164 62.07390869 -1.05743164 62.07390869 -1.07617188 63.56005859 C-1.10827431 65.49294646 -1.15346753 67.42566923 -1.21289062 69.35791016 C-1.30018561 74.67436474 -1.09773578 78.4470488 2 83 C5.74614687 85.49743125 8.66943783 85.39150839 13 85 C16.75778722 84.15773735 19.73589195 83.14261835 23.125 81.3125 C26 80 26 80 28.75 80.125 C31 81 31 81 33 84 C34.55662462 98.10793471 34.55662462 98.10793471 30.75 102.875 C26.45163093 106.19646701 22.20523772 106.23487183 16.92578125 106.71875 C14.99613498 106.80469862 14.99613498 106.80469862 14 108 C11.4248055 108.12772014 8.88826801 108.18521854 6.3125 108.1875 C5.60416016 108.19974609 4.89582031 108.21199219 4.16601562 108.22460938 C-0.29154921 108.2369572 -3.79433003 107.64352333 -8 106 C-9.32911682 105.65023242 -10.66082739 105.30903983 -12 105 C-12 104.34 -12 103.68 -12 103 C-12.99 103 -13.98 103 -15 103 C-15 102.34 -15 101.68 -15 101 C-15.66 101 -16.32 101 -17 101 C-17 100.34 -17 99.68 -17 99 C-17.66 99 -18.32 99 -19 99 C-19 98.34 -19 97.68 -19 97 C-19.66 96.67 -20.32 96.34 -21 96 C-24.40023294 91.6724308 -25.49598416 88.44337111 -26 83 C-26.16870605 82.35909424 -26.33741211 81.71818848 -26.51123047 81.05786133 C-27.03122601 78.86852947 -27.12934167 76.94707763 -27.1328125 74.69921875 C-27.13474609 73.48008789 -27.13474609 73.48008789 -27.13671875 72.23632812 C-27.13285156 71.39521484 -27.12898437 70.55410156 -27.125 69.6875 C-27.13080078 68.44323242 -27.13080078 68.44323242 -27.13671875 67.17382812 C-27.12910193 62.34857221 -26.75122188 57.77777118 -26 53 C-26.020625 51.88625 -26.04125 50.7725 -26.0625 49.625 C-25.98654982 45.21988971 -25.08025885 41.25351922 -24 37 C-25.03640625 37.04640625 -26.0728125 37.0928125 -27.140625 37.140625 C-28.51038779 37.17815275 -29.88018182 37.21455184 -31.25 37.25 C-32.27287109 37.30027344 -32.27287109 37.30027344 -33.31640625 37.3515625 C-36.8073666 37.41934814 -38.62994877 37.2851117 -41.43359375 35.125 C-44.13410841 31.46145891 -44.13108041 28.2168741 -43.8125 23.8125 C-43 20 -43 20 -41.43359375 18.76953125 C-38.04039049 17.69656007 -34.76672391 17.78857767 -31.25 17.875 C-30.20392578 17.88853516 -30.20392578 17.88853516 -29.13671875 17.90234375 C-27.42433042 17.92580112 -25.71211996 17.96166896 -24 18 C-24.09539063 17.19175781 -24.19078125 16.38351563 -24.2890625 15.55078125 C-24.39992188 14.48214844 -24.51078125 13.41351563 -24.625 12.3125 C-24.79902344 10.72888672 -24.79902344 10.72888672 -24.9765625 9.11328125 C-25.00141071 5.81261043 -24.53675445 3.89992202 -23 1 C-16.6092133 -3.75212344 -7.02939336 -3.2443354 0 0 Z " fill="#FCFBFA" transform="translate(754,120)"/>
<path d="M0 0 C1.2375 -0.01675781 2.475 -0.03351563 3.75 -0.05078125 C7 0.3125 7 0.3125 8.9375 1.70703125 C10 3.3125 10 3.3125 10 5.3125 C10.66 5.3125 11.32 5.3125 12 5.3125 C13.37623011 15.86154954 13.07807377 26.45004439 13 37.0625 C12.9732694 40.72395566 12.95336278 44.38535792 12.9375 48.046875 C12.92920166 48.87306335 12.92090332 49.69925171 12.91235352 50.55047607 C12.89259791 55.24423867 13.27312818 59.66236593 14 64.3125 C14.06107067 65.79315837 14.08757233 67.27610733 14.0625 68.7578125 C14.05476562 69.52480469 14.04703125 70.29179687 14.0390625 71.08203125 C14.01972656 72.24798828 14.01972656 72.24798828 14 73.4375 C13.97430161 75.00253184 13.95333638 76.5676498 13.9375 78.1328125 C13.92589844 78.81617676 13.91429687 79.49954102 13.90234375 80.20361328 C14.01553266 82.6479277 14.51915188 84.91466459 15 87.3125 C15.28180198 90.9766392 15.3221052 94.6387159 15.375 98.3125 C15.41238281 99.29734375 15.44976563 100.2821875 15.48828125 101.296875 C15.54305677 105.80063978 15.44148212 108.55567351 13.140625 112.5 C8.50138357 115.17737316 4.60394798 114.73281053 -0.625 114.3125 C-1.57890625 114.26738281 -2.5328125 114.22226563 -3.515625 114.17578125 C-10.42248871 113.73802228 -10.42248871 113.73802228 -12.61453247 112.12287903 C-14.52584046 109.62538859 -14.3679826 107.9609228 -14.35644531 104.8347168 C-14.35944641 103.71312668 -14.36244751 102.59153656 -14.36553955 101.43595886 C-14.34701935 99.61721001 -14.34701935 99.61721001 -14.328125 97.76171875 C-14.32625183 96.51501907 -14.32437866 95.2683194 -14.32244873 93.98384094 C-14.31571898 91.34316702 -14.30343041 88.70326002 -14.28125 86.06274414 C-14.24750787 82.0267971 -14.24028976 77.9911644 -14.234375 73.95507812 C-14.2252003 71.39062026 -14.21482306 68.82616635 -14.203125 66.26171875 C-14.19887512 65.05529221 -14.19462524 63.84886566 -14.19024658 62.60588074 C-14.18063904 61.47483414 -14.17103149 60.34378754 -14.16113281 59.1784668 C-14.15430481 58.1882402 -14.14747681 57.19801361 -14.14044189 56.17778015 C-13.99242144 53.15788315 -13.53191567 50.28638772 -13 47.3125 C-12.93733488 45.87621543 -12.91313653 44.4374445 -12.9375 43 C-12.94523438 42.23429687 -12.95296875 41.46859375 -12.9609375 40.6796875 C-12.97382812 39.89851563 -12.98671875 39.11734375 -13 38.3125 C-13.13526307 30.11555792 -13.13526307 30.11555792 -12.50390625 26.3671875 C-11.79181185 22.05046024 -11.89475973 17.80358342 -11.9375 13.4375 C-11.94201172 12.55835937 -11.94652344 11.67921875 -11.95117188 10.7734375 C-11.96287663 8.61976197 -11.98080931 6.46612183 -12 4.3125 C-11.34 4.3125 -10.68 4.3125 -10 4.3125 C-10 3.6525 -10 2.9925 -10 2.3125 C-6.33236683 -0.13258878 -4.36568225 0.01364276 0 0 Z " fill="#FCFBFB" transform="translate(681,112.6875)"/>
<path d="M0 0 C1.04027344 -0.01417969 2.08054687 -0.02835938 3.15234375 -0.04296875 C6.09127049 0.18977847 7.67175335 0.4920488 10.0625 2.1875 C12.59243854 5.62155451 12.23549328 8.98371192 12.125 13.125 C11.96625776 17.85323344 11.96625776 17.85323344 12.55314636 22.51815796 C13.12164004 25.49743199 13.2114286 28.27425889 13.23950195 31.30712891 C13.25233719 32.51833405 13.26517242 33.72953918 13.27839661 34.97744751 C13.28578354 36.27653046 13.29317047 37.5756134 13.30078125 38.9140625 C13.30485678 39.57871899 13.3089323 40.24337547 13.31313133 40.92817307 C13.33391557 44.43941683 13.34825585 47.95062227 13.35766602 51.46191406 C13.36877675 55.08819293 13.40325042 58.71386598 13.44283772 62.33992958 C13.46894149 65.13145101 13.47735169 67.92282571 13.48094749 70.71445847 C13.48819006 72.70154292 13.51464102 74.68852722 13.54133606 76.67544556 C13.53841049 77.88034637 13.53548492 79.08524719 13.5324707 80.32666016 C13.54127007 81.91953354 13.54127007 81.91953354 13.55024719 83.54458618 C13.0625 86.1875 13.0625 86.1875 11.16654968 88.02854919 C7.46124237 90.06950333 3.70282015 89.65934655 -0.4375 89.625 C-1.29214844 89.64498047 -2.14679688 89.66496094 -3.02734375 89.68554688 C-3.85363281 89.68490234 -4.67992187 89.68425781 -5.53125 89.68359375 C-6.28083984 89.68544678 -7.03042969 89.6872998 -7.80273438 89.68920898 C-11.04355876 88.92755595 -12.05982184 87.95867409 -13.9375 85.1875 C-14.48720077 81.91707122 -14.40236382 78.69863421 -14.328125 75.390625 C-14.31963531 73.96746979 -14.31963531 73.96746979 -14.31097412 72.51556396 C-14.28860609 69.48902664 -14.23840858 66.46367871 -14.1875 63.4375 C-14.16743557 61.3841317 -14.1491847 59.33074481 -14.1328125 57.27734375 C-14.08873981 52.24693844 -14.01970891 47.21742079 -13.9375 42.1875 C-13.2775 42.1875 -12.6175 42.1875 -11.9375 42.1875 C-11.97302979 41.28507568 -12.00855957 40.38265137 -12.04516602 39.45288086 C-12.17503248 36.07787042 -12.29922376 32.70274709 -12.41967773 29.32739258 C-12.47277189 27.87157983 -12.52807186 26.41584567 -12.58569336 24.96020508 C-12.66852362 22.85775702 -12.74319592 20.75514622 -12.81640625 18.65234375 C-12.8635376 17.390271 -12.91066895 16.12819824 -12.95922852 14.82788086 C-12.9035819 5.50488441 -12.9035819 5.50488441 -10.5625 2.3125 C-7.18118319 -0.02841164 -3.97843725 0.02458861 0 0 Z " fill="#FCFCFB" transform="translate(423.9375,137.8125)"/>
<path d="M0 0 C0.845625 0.144375 1.69125 0.28875 2.5625 0.4375 C5.33419163 1.07712115 6.85394747 2.17188118 9 4 C7.625 6.5 7.625 6.5 6 9 C5.34 9 4.68 9 4 9 C4 9.66 4 10.32 4 11 C-1.40201005 12.25628141 -1.40201005 12.25628141 -4.2421875 11.0390625 C-7.75351517 9.71609769 -10.69247958 9.73491432 -14.4375 9.75 C-15.71496094 9.74484375 -16.99242187 9.7396875 -18.30859375 9.734375 C-21.91029026 9.9935447 -24.63338416 10.75591911 -28 12 C-30.32694964 12.37531446 -32.65976685 12.71917202 -35 13 C-35 13.66 -35 14.32 -35 15 C-35.99 15.53625 -36.98 16.0725 -38 16.625 C-41.6686808 18.70964754 -44.97078969 21.14629062 -48.30078125 23.73046875 C-50 25 -50 25 -52 26 C-52.72159424 27.64363134 -53.39351421 29.31050386 -54 31 C-54.66 31 -55.32 31 -56 31 C-56.0825 31.70125 -56.165 32.4025 -56.25 33.125 C-57 36 -57 36 -59.0625 39.0625 C-61.36706316 41.97002811 -61.36706316 41.97002811 -61 46 C-61.66 46 -62.32 46 -63 46 C-62.690625 47.299375 -62.690625 47.299375 -62.375 48.625 C-61.94895419 52.4594123 -62.70533151 54.40369864 -64 58 C-64.44395358 60.66372148 -64.72189167 63.31161952 -65 66 C-65.66 66 -66.32 66 -67 66 C-68.87123722 44.38052715 -68.87123722 44.38052715 -66 38 C-65.01 37.505 -65.01 37.505 -64 37 C-64.04125 36.2575 -64.0825 35.515 -64.125 34.75 C-63.99601866 31.91241048 -63.42948778 30.41226062 -62 28 C-61.34 28 -60.68 28 -60 28 C-59.34 26.02 -58.68 24.04 -58 22 C-57.34 22 -56.68 22 -56 22 C-55.938125 21.443125 -55.87625 20.88625 -55.8125 20.3125 C-52.98125692 12.25434661 -42.11516596 6.87405509 -35 3 C-32.38024544 1.78229927 -29.76692858 0.82570398 -27 0 C-26.32710937 -0.20496094 -25.65421875 -0.40992187 -24.9609375 -0.62109375 C-16.82793157 -2.76524986 -7.77840912 -3.46748359 0 0 Z " fill="#FAF7F7" transform="translate(180,81)"/>
<path d="M0 0 C0 0.66 0 1.32 0 2 C0.8971875 2.4021875 0.8971875 2.4021875 1.8125 2.8125 C4.09795418 4.05317513 5.44064279 4.92085706 7 7 C7.8560671 10.09501184 8.34854396 12.08842348 7.1875 15.125 C6.795625 15.74375 6.40375 16.3625 6 17 C5.7215625 17.65226562 5.443125 18.30453125 5.15625 18.9765625 C3.13747851 22.50941261 -0.27147676 23.68961321 -4 25 C-8.60756604 25.46856604 -11.83648793 25.01867252 -16 23 C-16 22.34 -16 21.68 -16 21 C-16.9590625 20.690625 -16.9590625 20.690625 -17.9375 20.375 C-20 19 -20 19 -20.75 16.25 C-20.8325 15.1775 -20.915 14.105 -21 13 C-21.103125 11.989375 -21.20625 10.97875 -21.3125 9.9375 C-20.91241682 6.17671808 -19.68515101 4.60843241 -17 2 C-16.01 2 -15.02 2 -14 2 C-13.67 1.34 -13.34 0.68 -13 0 C-8.55176251 -1.48274583 -4.47568357 -1.37713341 0 0 Z " fill="#FAF9F9" transform="translate(431,108)"/>
<path d="M0 0 C2.6973118 1.08003244 4.57690342 2.28957888 7 4 C7.8125 6.1875 7.8125 6.1875 8 8 C8.66 8.33 9.32 8.66 10 9 C10.48929664 16.21712538 10.48929664 16.21712538 8.125 20 C6 22 6 22 4 22 C3.67 22.99 3.34 23.98 3 25 C1.22844346 24.88570603 -0.54226229 24.75816963 -2.3125 24.625 C-3.29863281 24.55539063 -4.28476563 24.48578125 -5.30078125 24.4140625 C-8 24 -8 24 -11 22 C-11 21.34 -11 20.68 -11 20 C-11.66 20 -12.32 20 -13 20 C-14.76523424 15.25593297 -16.07635099 11.48906166 -14 6.6875 C-13.67 6.130625 -13.34 5.57375 -13 5 C-12.34 5 -11.68 5 -11 5 C-11 4.34 -11 3.68 -11 3 C-7.29450826 0.16638867 -4.61961506 -0.64674611 0 0 Z " fill="#F9F6F6" transform="translate(208,92)"/>
<path d="M0 0 C-0.34796683 3.13170151 -0.81274086 4.76754038 -2.8125 7.25 C-5.10649915 9.08519932 -6.14250797 9.59178685 -9 10 C-10.2375 10.185625 -11.475 10.37125 -12.75 10.5625 C-14.35875 10.7790625 -14.35875 10.7790625 -16 11 C-16.33 11.99 -16.66 12.98 -17 14 C-19.58072903 16.32265612 -20.45176068 17 -24 17 C-24.28875 17.5775 -24.5775 18.155 -24.875 18.75 C-25.24625 19.4925 -25.6175 20.235 -26 21 C-26.33 21.70125 -26.66 22.4025 -27 23.125 C-28.28771843 25.53947206 -29.55261416 26.77630708 -32 28 C-32.38932033 29.98985949 -32.71887936 31.99199544 -33 34 C-33.33 34.99 -33.66 35.98 -34 37 C-34 37.99 -34 38.98 -34 40 C-34.66 40 -35.32 40 -36 40 C-36 40.99 -36 41.98 -36 43 C-36.66 43 -37.32 43 -38 43 C-38.22245393 41.39773045 -38.42746669 39.79303233 -38.625 38.1875 C-38.79902344 36.84751953 -38.79902344 36.84751953 -38.9765625 35.48046875 C-39 33 -39 33 -37 30 C-36.64984951 28.33678518 -36.31802943 26.66965451 -36 25 C-34.84311501 21.52934503 -33.69123807 19.45721737 -31 17 C-30.67 16.34 -30.34 15.68 -30 15 C-29.34 15 -28.68 15 -28 15 C-27.67 13.68 -27.34 12.36 -27 11 C-26.360625 10.896875 -25.72125 10.79375 -25.0625 10.6875 C-24.381875 10.460625 -23.70125 10.23375 -23 10 C-22.67 9.01 -22.34 8.02 -22 7 C-15.97600378 2.80560594 -7.42878352 -2.38782327 0 0 Z " fill="#F8F5F6" transform="translate(164,99)"/>
<path d="M0 0 C0.66 0.66 1.32 1.32 2 2 C2.66 1.67 3.32 1.34 4 1 C3.67 4.96 3.34 8.92 3 13 C2.34 13 1.68 13 1 13 C0.67 8.71 0.34 4.42 0 0 Z " fill="#CFC6C7" transform="translate(112,134)"/>
<path d="M0 0 C0.33 0 0.66 0 1 0 C1 2.64 1 5.28 1 8 C0.67 8 0.34 8 0 8 C0 5.36 0 2.72 0 0 Z " fill="#FFFFFF" transform="translate(546,183)"/>
<path d="M0 0 C4 1 4 1 4 1 Z " fill="#000000" transform="translate(423,137)"/>
<path d="" fill="#FFFFFF" transform="translate(0,0)"/>
<path d="" fill="#FFFFFF" transform="translate(0,0)"/>
<path d="" fill="#FFFFFF" transform="translate(0,0)"/>
<path d="" fill="#FFFFFF" transform="translate(0,0)"/>
<path d="" fill="#FFFFFF" transform="translate(0,0)"/>
<path d="" fill="#FFFFFF" transform="translate(0,0)"/>
<path d="" fill="#FFFFFF" transform="translate(0,0)"/>
<path d="" fill="#FFFFFF" transform="translate(0,0)"/>
</svg>
